<mxfile host="app.diagrams.net" modified="2024-07-02T08:01:27.663Z" agent="Mozilla/5.0 (Windows NT 10.0; Win64; x64) AppleWebKit/537.36 (KHTML, like Gecko) Chrome/126.0.0.0 Safari/537.36" version="24.6.4" etag="16uut-lNa76cb0FlBzZH" type="github">
  <diagram name="Sayfa -1" id="0iGRb5HfWT9uJ_rDGxTI">
    <mxGraphModel>
      <root>
        <mxCell id="0" />
        <mxCell id="1" parent="0" />
      </root>
    </mxGraphModel>
  </diagram>
</mxfile>
